#!OML:ASF E:\Steps\Project 1\Capture day 1\Session 2\Subject.ASF
:FULLY-SPECIFIED
:DEGREES
301
root 10.0121 16.3644 17.7351 181.377 86.7567 155.726
lowerback -27.7448 -1.96197 -4.73067
upperback -3.31988 -0.745446 -0.244107
thorax 11.7553 -0.409715 2.20891
lowerneck 0.380089 -0.0442669 -4.24907
upperneck 8.76457 -0.317597 6.79184
head 2.78915 -0.0331457 2.98543
rclavicle 2.33572e-015 3.18055e-015
rhumerus -33.4902 -30.2187 -74.7242
rradius 17.1866
rwrist 19.7956
rhand -16.3015 -55.4248
rfingers 7.12502
rthumb 9.90929 -85.1716
lclavicle 2.33572e-015 3.18055e-015
lhumerus -25.3015 2.81093 84.8898
lradius 16.2828
lwrist -9.19099
lhand -23.596 -14.7084
lfingers 7.12502
lthumb 2.86749 15.2521
rfemur -25.6844 10.5254 13.7634
rtibia 8.90223
rfoot -18.1415 -6.08586
rtoes -37.8713
lfemur -25.0784 -11.4172 -15.0797
ltibia 10.2038
lfoot -8.31753 6.07698
ltoes -46.6938
302
root 10.0041 16.3753 17.7292 179.899 86.7645 154.568
lowerback -27.417 -1.90865 -4.77856
upperback -3.26795 -0.679739 -0.311372
thorax 11.639 -0.382089 2.18502
lowerneck 0.472538 -0.0502538 -4.22009
upperneck 8.75105 -0.326462 6.78762
head 2.76766 -0.0376932 2.97716
rclavicle -5.46658e-016 -7.55382e-015
rhumerus -33.1829 -28.8378 -75.7087
rradius 17.584
rwrist 18.2894
rhand -16.5118 -55.479
rfingers 7.12502
rthumb 9.7064 -85.2354
lclavicle -5.46658e-016 -7.55382e-015
lhumerus -25.1469 2.61386 84.9031
lradius 16.3263
lwrist -9.2472
lhand -23.3241 -14.8537
lfingers 7.12502
lthumb 3.13013 15.103
rfemur -25.2608 10.2252 13.944
rtibia 8.84314
rfoot -18.244 -5.67217
rtoes -37.6545
lfemur -24.5785 -11.2532 -15.3586
ltibia 10.0022
lfoot -8.27954 5.84046
ltoes -46.1814
303
root 9.99532 16.378 17.7219 178.896 86.7118 153.566
lowerback -27.4351 -1.92079 -4.83341
upperback -3.26539 -0.676374 -0.319563
thorax 11.6517 -0.382918 2.20847
lowerneck 0.544384 -0.0449859 -4.24998
upperneck 8.74161 -0.319915 6.79425
head 2.75111 -0.0360919 2.98434
rclavicle -8.62228e-015 -1.41137e-014
rhumerus -32.8788 -27.8359 -76.3618
rradius 17.9238
rwrist 17.5699
rhand -16.4735 -55.4858
rfingers 7.12502
rthumb 9.74336 -85.2404
lclavicle -8.62228e-015 -1.41137e-014
lhumerus -24.9987 2.52351 85.0172
lradius 16.4815
lwrist -9.32966
lhand -23.54 -14.5395
lfingers 7.12502
lthumb 2.92159 15.4202
rfemur -25.2657 9.91267 13.9316
rtibia 8.84232
rfoot -18.2889 -5.44914
rtoes -37.7238
lfemur -24.4948 -10.8067 -15.5959
ltibia 9.79315
lfoot -8.10746 5.25646
ltoes -45.9554
304
root 9.98572 16.3755 17.7207 180.677 86.6017 155.217
lowerback -27.525 -1.96967 -4.81684
upperback -3.32567 -0.743195 -0.259426
thorax 11.6346 -0.41071 2.24311
lowerneck 0.571544 -0.0596139 -4.2543
upperneck 8.73704 -0.340771 6.81162
head 2.74613 -0.0463536 2.99043
rclavicle 5.7896e-015 -1.76918e-014
rhumerus -32.6423 -26.9582 -76.8848
rradius 18.2664
rwrist 17.1338
rhand -16.437 -55.537
rfingers 7.12502
rthumb 9.77853 -85.2899
lclavicle 5.7896e-015 -1.76918e-014
lhumerus -24.8217 2.85128 84.9832
lradius 16.5406
lwrist -9.7187
lhand -23.45 -14.864
lfingers 7.12502
lthumb 3.0085 15.0945
rfemur -25.4335 9.79945 13.9475
rtibia 8.81962
rfoot -18.1921 -5.44866
rtoes -37.4194
lfemur -24.7562 -11.7866 -15.2273
ltibia 9.86315
lfoot -8.21571 6.01053
ltoes -44.9711
305
root 9.97694 16.3745 17.7195 182.138 86.5297 156.643
lowerback -27.4915 -1.98223 -4.78277
upperback -3.39334 -0.772213 -0.235582
thorax 11.5408 -0.418168 2.2409
lowerneck 0.626041 -0.0867558 -4.20395
upperneck 8.72559 -0.378925 6.82313
head 2.73426 -0.0638217 2.98347
rclavicle 4.72114e-016 4.39314e-014
rhumerus -32.4645 -25.871 -77.5608
rradius 18.7226
rwrist 16.01
rhand -16.2253 -55.5796
rfingers 7.12502
rthumb 9.98283 -85.3229
lclavicle 4.72114e-016 4.39314e-014
lhumerus -24.688 3.20466 84.8918
lradius 16.537
lwrist -10.4237
lhand -23.6937 -15.1602
lfingers 7.12502
lthumb 2.77314 14.8015
rfemur -25.4732 9.72094 13.9873
rtibia 8.75184
rfoot -18.0038 -5.33723
rtoes -36.8274
lfemur -24.9196 -11.4845 -15.172
ltibia 9.97813
lfoot -8.28925 5.63295
ltoes -43.8994
